# xmcd
#
# Track frame offsets: 
#        150
#        24001
#        48797
#        63025
#        86116
#        108967
#        126224
#        142376
#        162695
#        181204
#        203896
#        229076
#
# Disc length: 3406 seconds
#
# Revision: 1
# Processed by: cddbd v1.5.2PL0 Copyright (c) Steve Scherf et al.
# Submitted via: ExactAudioCopy v1.0b3
#
DISCID=a00d4c0c
DTITLE=Mong Thi - Mui Huong Da Ly
DYEAR=2001
DGENRE=Tinh Khuc Bat Tu
TTITLE0=Hoi tuong
TTITLE1=Nguoi tinh va que huong
TTITLE2=Muoi lam nam truoc
TTITLE3=Mui huong da ly
TTITLE4=Chuyen xe lam chieu
TTITLE5=Ngay ve tham que huong
TTITLE6=Cung tat bien dong
TTITLE7=Chin dong song ho hen
TTITLE8=Noi buon tim
TTITLE9=Phai duyen hay no
TTITLE10=Mot lan lo buoc
TTITLE11=Noi nho que huong
EXTD=
EXTT0=
EXTT1=
EXTT2=
EXTT3=
EXTT4=
EXTT5=
EXTT6=
EXTT7=
EXTT8=
EXTT9=
EXTT10=
EXTT11=
PLAYORDER=
